<svg 
 xmlns="http://www.w3.org/2000/svg"
 xmlns:xlink="http://www.w3.org/1999/xlink"
 width="78px" height="79px">
<path fill-rule="evenodd"  fill="rgb(255, 193, 120)"
 d="M63.469,44.940 C60.273,58.869 52.322,69.034 40.478,74.335 L38.995,75.000 L37.511,74.335 C25.667,69.034 17.716,58.869 14.519,44.940 C12.162,34.667 13.217,25.985 13.263,25.620 L13.681,22.313 L17.049,22.515 C17.078,22.515 17.248,22.522 17.528,22.522 C20.293,22.522 29.815,21.928 36.228,14.295 L38.995,11.000 L41.763,14.295 C48.174,21.930 57.695,22.522 60.460,22.522 C60.740,22.522 60.912,22.515 60.954,22.513 L64.296,22.339 L64.724,25.620 C64.771,25.985 65.826,34.667 63.469,44.940 ZM62.779,25.861 L62.586,24.363 L61.062,24.448 C61.036,24.449 60.825,24.459 60.460,24.459 C57.479,24.459 47.210,23.818 40.252,15.532 L38.995,14.034 L37.736,15.532 C30.778,23.816 20.511,24.459 17.528,24.459 C17.163,24.459 16.952,24.449 16.930,24.448 L15.399,24.358 L15.209,25.861 C15.165,26.212 14.150,34.567 16.432,44.511 C19.488,57.827 27.056,67.529 38.320,72.570 L38.995,72.871 L39.669,72.570 C50.932,67.529 58.500,57.827 61.556,44.511 C63.838,34.567 62.823,26.212 62.779,25.861 ZM38.995,71.099 C12.631,59.299 16.832,26.061 16.832,26.061 C16.832,26.061 30.340,26.867 38.995,16.564 C47.648,26.867 61.157,26.061 61.157,26.061 C61.157,26.061 65.356,59.299 38.995,71.099 Z"/>
<path fill-rule="evenodd"  fill="rgb(243, 107, 127)"
 d="M38.495,-0.002 L39.887,2.962 L42.997,3.436 L40.746,5.745 L41.278,9.003 L38.495,7.464 L35.714,9.003 L36.244,5.745 L33.994,3.436 L37.104,2.962 L38.495,-0.002 Z"/>
<path fill-rule="evenodd"  fill="rgb(248, 207, 97)"
 d="M54.495,7.998 L55.887,10.962 L58.997,11.436 L56.746,13.745 L57.278,17.003 L54.495,15.464 L51.714,17.003 L52.244,13.745 L49.994,11.436 L53.104,10.962 L54.495,7.998 Z"/>
<path fill-rule="evenodd"  fill="rgb(248, 207, 97)"
 d="M22.495,7.998 L23.887,10.962 L26.997,11.436 L24.746,13.745 L25.278,17.003 L22.495,15.464 L19.714,17.003 L20.244,13.745 L17.994,11.436 L21.104,10.962 L22.495,7.998 Z"/>
<path fill-rule="evenodd"  fill="rgb(37, 44, 58)"
 d="M76.210,45.830 C75.547,46.708 74.800,47.041 74.233,46.957 C74.023,48.241 73.717,49.627 73.287,51.092 C73.695,50.461 74.142,49.850 74.651,49.308 C75.909,47.971 77.111,47.384 77.996,47.764 C77.927,48.213 77.822,48.678 77.684,49.144 C77.546,49.611 77.327,50.068 77.106,50.516 C76.878,50.963 76.622,51.396 76.342,51.800 C76.037,52.197 75.709,52.565 75.363,52.892 C74.679,53.547 74.007,53.941 73.387,54.096 C72.963,54.206 72.602,54.173 72.276,54.078 C71.682,55.609 70.950,57.181 70.072,58.757 C70.706,58.137 71.387,57.549 72.080,57.028 C72.548,56.690 73.007,56.412 73.447,56.193 C73.880,55.972 74.278,55.802 74.662,55.702 C75.425,55.499 76.090,55.552 76.578,55.885 C76.215,56.996 75.559,58.113 74.783,59.128 C74.390,59.633 73.928,60.092 73.467,60.519 C73.010,60.949 72.508,61.321 71.983,61.626 C71.466,61.936 70.975,62.168 70.518,62.327 C70.053,62.480 69.613,62.554 69.222,62.570 C68.677,62.590 68.220,62.480 67.852,62.275 C67.410,62.896 66.952,63.513 66.461,64.119 C65.795,64.949 65.097,65.714 64.395,66.466 C65.368,65.847 66.387,65.273 67.438,64.813 C68.066,64.534 68.673,64.324 69.236,64.173 C69.787,64.012 70.304,63.918 70.777,63.892 C71.721,63.840 72.484,64.059 72.963,64.564 C71.521,66.988 68.845,69.228 66.118,70.134 C63.700,70.938 61.910,70.615 61.037,69.720 C59.335,71.196 57.613,72.482 55.961,73.557 C52.481,75.815 49.313,77.260 47.003,78.003 C49.185,76.957 52.183,75.283 55.498,72.903 C57.073,71.768 58.716,70.451 60.348,68.968 C59.537,68.018 59.404,66.294 59.895,64.196 C60.453,61.797 61.569,59.525 62.860,57.875 C63.497,58.157 64.027,58.706 64.363,59.514 C64.531,59.918 64.651,60.387 64.713,60.919 C64.762,61.442 64.741,62.020 64.654,62.658 C64.515,63.650 64.176,64.650 63.704,65.593 C64.339,64.895 64.974,64.195 65.581,63.437 C66.059,62.846 66.508,62.248 66.942,61.647 C66.615,61.375 66.347,60.988 66.156,60.499 C66.018,60.150 65.922,59.757 65.856,59.318 C65.781,58.873 65.743,58.388 65.747,57.870 C65.759,55.793 66.290,53.709 67.062,52.087 C67.637,52.210 68.171,52.577 68.595,53.191 C68.804,53.497 68.996,53.870 69.132,54.296 C69.261,54.718 69.350,55.201 69.391,55.742 C69.469,56.547 69.373,57.370 69.186,58.185 C70.056,56.687 70.801,55.196 71.428,53.742 C71.126,53.588 70.841,53.369 70.606,53.023 C70.280,52.532 70.000,51.849 69.815,51.023 C69.725,50.611 69.669,50.192 69.646,49.775 C69.597,49.350 69.579,48.926 69.591,48.511 C69.597,48.095 69.659,47.694 69.703,47.297 C69.748,46.899 69.822,46.518 69.925,46.160 C70.852,46.174 71.858,47.036 72.324,48.719 C72.514,49.404 72.564,50.150 72.538,50.894 C73.037,49.470 73.428,48.117 73.734,46.860 C73.166,46.733 72.651,46.160 72.264,45.191 C72.041,44.643 71.906,44.054 71.855,43.474 C71.814,42.896 71.774,42.313 71.863,41.794 C72.500,41.727 73.218,42.245 73.723,43.350 C73.944,43.898 74.075,44.517 74.121,45.137 C74.121,45.141 74.121,45.145 74.121,45.149 C74.362,43.972 74.535,42.909 74.669,41.997 C74.663,42.896 74.614,43.945 74.489,45.113 C74.708,44.556 74.998,44.013 75.357,43.533 C76.044,42.523 76.837,42.055 77.456,42.235 C77.431,42.832 77.359,43.484 77.122,44.107 C76.895,44.730 76.586,45.329 76.210,45.830 ZM74.667,41.997 C74.444,41.626 74.293,41.119 74.174,40.521 C74.040,39.922 73.969,39.234 73.984,38.497 C73.992,37.025 74.224,35.739 74.705,34.998 C75.213,35.665 75.657,36.970 75.648,38.500 C75.634,39.264 75.535,39.975 75.377,40.576 C75.203,41.176 74.938,41.665 74.667,41.997 Z"/>
<path fill-rule="evenodd"  fill="rgb(37, 44, 58)"
 d="M30.997,79.003 C28.687,78.260 25.519,76.815 22.039,74.557 C20.387,73.482 18.665,72.196 16.963,70.721 C16.090,71.615 14.299,71.938 11.882,71.134 C9.155,70.228 6.479,67.988 5.037,65.563 C5.516,65.059 6.279,64.840 7.223,64.892 C7.696,64.918 8.213,65.012 8.764,65.173 C9.327,65.324 9.934,65.534 10.562,65.813 C11.613,66.273 12.632,66.847 13.605,67.466 C12.903,66.714 12.205,65.949 11.539,65.119 C11.048,64.513 10.590,63.896 10.148,63.275 C9.780,63.481 9.323,63.590 8.778,63.570 C8.387,63.554 7.947,63.480 7.482,63.327 C7.025,63.168 6.534,62.936 6.017,62.626 C5.492,62.321 4.990,61.949 4.533,61.519 C4.072,61.092 3.610,60.633 3.217,60.128 C2.441,59.113 1.785,57.996 1.422,56.885 C1.910,56.552 2.575,56.499 3.338,56.702 C3.722,56.803 4.120,56.972 4.553,57.193 C4.993,57.412 5.452,57.690 5.920,58.028 C6.613,58.549 7.294,59.137 7.928,59.756 C7.050,58.181 6.317,56.609 5.724,55.078 C5.398,55.173 5.037,55.206 4.613,55.096 C3.993,54.941 3.321,54.547 2.637,53.892 C2.291,53.565 1.963,53.197 1.658,52.800 C1.378,52.396 1.122,51.963 0.894,51.516 C0.673,51.068 0.454,50.611 0.316,50.144 C0.178,49.678 0.073,49.213 0.004,48.764 C0.889,48.384 2.091,48.971 3.349,50.308 C3.858,50.849 4.305,51.461 4.712,52.091 C4.283,50.627 3.977,49.241 3.767,47.958 C3.200,48.041 2.453,47.708 1.790,46.830 C1.414,46.329 1.105,45.730 0.878,45.106 C0.641,44.484 0.569,43.832 0.544,43.236 C1.163,43.055 1.956,43.523 2.643,44.533 C3.002,45.013 3.292,45.557 3.511,46.113 C3.386,44.945 3.337,43.896 3.331,42.997 C3.465,43.909 3.638,44.972 3.879,46.149 C3.879,46.145 3.879,46.141 3.879,46.137 C3.925,45.517 4.056,44.898 4.277,44.350 C4.782,43.245 5.500,42.727 6.137,42.794 C6.226,43.313 6.186,43.896 6.145,44.474 C6.094,45.054 5.958,45.643 5.736,46.191 C5.349,47.160 4.834,47.733 4.266,47.860 C4.572,49.118 4.963,50.471 5.462,51.894 C5.436,51.150 5.486,50.404 5.676,49.719 C6.142,48.036 7.148,47.175 8.075,47.160 C8.178,47.518 8.252,47.900 8.297,48.297 C8.341,48.694 8.403,49.095 8.409,49.511 C8.421,49.926 8.403,50.350 8.354,50.775 C8.331,51.192 8.275,51.610 8.185,52.023 C8.000,52.849 7.720,53.531 7.394,54.023 C7.159,54.369 6.874,54.588 6.572,54.742 C7.199,56.196 7.944,57.687 8.814,59.184 C8.627,58.370 8.531,57.547 8.609,56.741 C8.650,56.201 8.739,55.718 8.868,55.296 C9.004,54.870 9.196,54.497 9.405,54.191 C9.829,53.577 10.363,53.210 10.938,53.087 C11.710,54.709 12.241,56.793 12.253,58.870 C12.257,59.388 12.219,59.873 12.144,60.318 C12.078,60.757 11.982,61.150 11.844,61.499 C11.653,61.988 11.385,62.375 11.058,62.647 C11.492,63.248 11.941,63.846 12.419,64.437 C13.026,65.195 13.661,65.895 14.296,66.594 C13.824,65.650 13.485,64.650 13.346,63.657 C13.259,63.020 13.238,62.441 13.287,61.919 C13.349,61.387 13.469,60.918 13.637,60.514 C13.973,59.706 14.503,59.157 15.140,58.875 C16.431,60.525 17.547,62.797 18.105,65.196 C18.596,67.294 18.463,69.018 17.651,69.968 C19.283,71.451 20.927,72.768 22.502,73.903 C25.817,76.283 28.815,77.957 30.997,79.003 ZM3.333,42.997 C3.062,42.665 2.797,42.177 2.623,41.576 C2.465,40.975 2.366,40.264 2.352,39.500 C2.343,37.970 2.787,36.665 3.295,35.998 C3.776,36.739 4.008,38.026 4.016,39.497 C4.031,40.234 3.960,40.922 3.826,41.521 C3.707,42.119 3.556,42.626 3.333,42.997 Z"/>
<text kerning="auto" font-family="Myriad Pro" fill="rgb(0, 0, 0)" font-size="36px" x="29px" y="55px"><tspan font-size="36px" font-family="Rubik" font-weight="bold" fill="#FFFFFF">E</tspan></text>
</svg>